<?xml version="1.0" encoding="utf-8"?>
<!-- Generator: Adobe Illustrator 24.3.0, SVG Export Plug-In . SVG Version: 6.00 Build 0)  -->
<svg version="1.1" id="Layer_1" xmlns="http://www.w3.org/2000/svg" xmlns:xlink="http://www.w3.org/1999/xlink" x="0px" y="0px"
	 viewBox="0 0 200 30.94" style="enable-background:new 0 0 200 30.94;" xml:space="preserve">
<style type="text/css">
	.st0{fill:#FFFFFF;}
</style>
<g>
	<path class="st0" d="M168.87,5.89c-0.08-0.09-0.17-0.17-0.26-0.26c-1.23-1.16-2.83-1.8-4.52-1.8c-1.69,0-3.29,0.64-4.52,1.8
		c-0.09,0.08-0.16,0.16-0.23,0.23l-3.85,3.84h5.91l1.06-1.06C162.9,8.22,163.48,8,164.08,8c0.6,0,1.18,0.22,1.61,0.61l6.87,6.87
		l2.95-2.95L168.87,5.89z"/>
	<path class="st0" d="M182.15,5.89c0.08-0.09,0.17-0.17,0.26-0.26c1.23-1.16,2.83-1.8,4.52-1.8c1.69,0,3.29,0.64,4.52,1.8
		c0.09,0.08,0.16,0.16,0.23,0.23l3.85,3.84h-5.91l-1.06-1.06C188.12,8.22,187.54,8,186.94,8c-0.6,0-1.18,0.22-1.61,0.61l-6.87,6.87
		l-2.95-2.95L182.15,5.89z"/>
	<path class="st0" d="M168.87,25.07c-0.08,0.09-0.17,0.17-0.26,0.26c-1.23,1.16-2.83,1.8-4.52,1.8c-1.69,0-3.29-0.64-4.52-1.8
		c-0.09-0.08-0.16-0.16-0.23-0.23l-3.85-3.84h5.91l1.06,1.06c0.45,0.41,1.02,0.63,1.63,0.63c0.6,0,1.18-0.22,1.61-0.61l6.87-6.87
		l2.95,2.95L168.87,25.07z"/>
	<path class="st0" d="M182.15,25.07c0.08,0.09,0.17,0.17,0.26,0.26c1.23,1.16,2.83,1.8,4.52,1.8c1.69,0,3.29-0.64,4.52-1.8
		c0.09-0.08,0.16-0.16,0.23-0.23l3.85-3.84h-5.91l-1.06,1.06c-0.45,0.41-1.02,0.63-1.63,0.63c-0.6,0-1.18-0.22-1.61-0.61l-6.87-6.87
		l-2.95,2.95L182.15,25.07z"/>
	<path class="st0" d="M50.83,17.14h17.06c0.34,0,0.61-0.27,0.61-0.61v-2.76c0-0.34-0.27-0.61-0.61-0.61H50.83V7.81h17.78
		c0.34,0,0.61-0.27,0.61-0.61V4.44c0-0.34-0.27-0.61-0.61-0.61H48.14c-1.02,0-1.84,0.82-1.84,1.84V25.3c0,1.02,0.82,1.84,1.84,1.84
		h20.59c0.34,0,0.61-0.27,0.61-0.61v-2.76c0-0.34-0.27-0.61-0.61-0.61h-17.9V17.14z"/>
	<path class="st0" d="M92.04,3.82H75.54c-1.02,0-1.84,0.82-1.84,1.84v19.63c0,1.02,0.82,1.84,1.84,1.84h16.42
		c7.59,0,10.16-2.94,10.16-11.65C102.11,6.44,99.85,3.82,92.04,3.82 M92.34,23.14H78.23V7.81h14.6c2.87,0,4.75,0.46,4.75,6.61v2.22
		C97.58,22.69,95.51,23.14,92.34,23.14"/>
	<path class="st0" d="M107.54,27.13h1.81c0.75,0,1.36-0.61,1.36-1.36V5.18c0-0.75-0.61-1.36-1.36-1.36h-1.81
		c-0.75,0-1.36,0.61-1.36,1.36v20.59C106.18,26.52,106.79,27.13,107.54,27.13"/>
	<path class="st0" d="M133.97,21.44L122.84,5.45c-0.71-1.02-1.88-1.63-3.13-1.63c-2.1,0-3.81,1.71-3.81,3.81v19.5h4.53V9.71
		l11.24,16.21c0.52,0.75,1.38,1.21,2.3,1.21c0.92,0,1.78-0.45,2.3-1.21l11.24-16.22v17.42h4.53V7.63c0-2.1-1.71-3.81-3.81-3.81
		c-1.25,0-2.41,0.61-3.13,1.63L133.97,21.44z"/>
	<path class="st0" d="M22.96,21.44L11.82,5.45c-0.71-1.02-1.88-1.63-3.13-1.63c-2.1,0-3.81,1.71-3.81,3.81v19.5h4.53V9.71
		l11.24,16.21c0.52,0.75,1.38,1.21,2.3,1.21c0.92,0,1.78-0.45,2.3-1.21L36.5,9.71v17.42h4.53V7.63c0-2.1-1.71-3.81-3.81-3.81
		c-1.25,0-2.41,0.61-3.13,1.63L22.96,21.44z"/>
</g>
</svg>
