<?xml version="1.0" encoding="utf-8"?>
<!-- Generator: Adobe Illustrator 24.3.0, SVG Export Plug-In . SVG Version: 6.00 Build 0)  -->
<svg version="1.1" id="Layer_1" xmlns="http://www.w3.org/2000/svg" xmlns:xlink="http://www.w3.org/1999/xlink" x="0px" y="0px"
	 viewBox="0 0 510.92 54.43" style="enable-background:new 0 0 510.92 54.43;" xml:space="preserve">
<style type="text/css">
	.st0{fill:#FFFFFF;}
</style>
<path class="st0" d="M36.54,33.97c-0.99,3.92-3.91,6.82-9.16,6.82c-6.85,0-10.27-5.13-10.27-11.54c0-6.16,3.44-11.73,10.4-11.73
	c5.47,0,8.38,3.14,9.02,6.93h-3.36c-0.75-2.33-2.3-4.17-5.79-4.17c-4.82,0-6.77,4.37-6.77,8.87c0,4.33,1.83,8.89,6.9,8.89
	c3.44,0,4.87-2.03,5.64-4.06H36.54z M43.46,30.69v9.81h-3.32V17.85h9.06c4.71,0,7.22,2.56,7.22,6.09c0,2.96-1.68,4.72-3.75,5.33
	c1.71,0.48,3.34,1.82,3.34,5.78v1c0,1.55-0.06,3.48,0.31,4.45h-3.25c-0.41-0.98-0.4-2.73-0.4-4.91v-0.45c0-3.08-0.86-4.44-4.84-4.44
	H43.46z M43.46,27.91h4.77c3.32,0,4.74-1.25,4.74-3.67c0-2.3-1.5-3.6-4.45-3.6h-5.07V27.91z M64.19,34l-2.31,6.5h-3.34l8-22.65h4.16
	l8.34,22.65h-3.57L73.09,34H64.19z M72.27,31.15c-2.05-5.73-3.21-8.88-3.71-10.66h-0.03c-0.55,1.98-1.84,5.76-3.5,10.66H72.27z
	 M81.77,17.85h14.79v2.85H85.07v7.01h10.77v2.85H85.07v9.95h-3.3V17.85z M105.71,20.69h-7.24v-2.85h17.85v2.85h-7.24V40.5h-3.38
	V20.69z M122.42,17.85V40.5h-3.36V17.85H122.42z M127.34,40.5V17.85h4.37c3.17,5.26,9.89,16.13,11.12,18.59h0.05
	c-0.23-2.81-0.21-6.45-0.21-10.15v-8.44h3.14V40.5h-4.12c-2.89-4.82-9.96-16.65-11.32-19.2h-0.05c0.16,2.47,0.17,6.46,0.17,10.54
	v8.66H127.34z M169.58,40.5h-2.55c-0.16-0.48-0.25-1.45-0.3-2.91c-1.04,1.62-3.04,3.23-6.96,3.23c-6.54,0-10.05-4.96-10.05-11.41
	c0-6.79,3.77-11.89,10.66-11.89c5.37,0,8.71,2.93,9.33,6.95h-3.36c-0.71-2.34-2.41-4.19-6.04-4.19c-5.14,0-7.09,4.14-7.09,8.98
	c0,4.52,1.99,8.78,6.99,8.78c4.91,0,6.08-3.29,6.08-6.77v-0.23h-6.11v-2.85h9.39V40.5z"/>
<path class="st0" d="M188.38,17.22l-2.15,10.11h15.16l2.15-10.11h1.93l-4.92,23.28h-1.93l2.44-11.45h-15.16l-2.44,11.45h-1.93
	l4.92-23.28H188.38z M223.95,29.06h-13.57l-2.03,9.72h15.4l-0.67,1.72h-17.03l4.92-23.28h16.22l-0.37,1.72h-14.29l-1.78,8.4h13.57
	L223.95,29.06z M232.65,32.38l-5.18,8.12h-2.16l14.88-23.28h2.16l5.36,23.28h-2.06l-1.84-8.12H232.65z M240.92,18.93h-0.03
	c-0.78,1.51-3.44,5.82-7.2,11.73h9.78C241.89,23.66,241.14,20.37,240.92,18.93z M254.93,17.22h1.93l-4.55,21.56h13.86l-0.64,1.72
	h-15.53L254.93,17.22z M276.3,18.94h-8.85l0.37-1.72h19.66l-0.37,1.72h-8.91l-4.52,21.56h-1.93L276.3,18.94z M292.66,17.22
	l-2.15,10.11h15.16l2.15-10.11h1.93l-4.92,23.28h-1.93l2.44-11.45h-15.16l-2.44,11.45h-1.93l4.92-23.28H292.66z"/>
<path class="st0" d="M322.7,34.13c0.6,2.63,2.41,4.01,5.57,4.01c3.36,0,4.71-1.54,4.71-3.59c0-2.19-1.11-3.37-5.53-4.44
	c-5.49-1.33-7.29-3.23-7.29-6.39c0-3.48,2.57-6.21,7.69-6.21c5.51,0,7.77,3.14,8.07,6.18h-3.41c-0.37-1.9-1.54-3.53-4.77-3.53
	c-2.61,0-4.1,1.16-4.1,3.22c0,2.02,1.22,2.82,5.13,3.76c6.48,1.57,7.68,4.07,7.68,7.03c0,3.75-2.79,6.6-8.41,6.6
	c-5.71,0-8.27-3.06-8.75-6.66H322.7z M360.09,29.05c0,6.24-3.55,11.77-10.73,11.77c-6.75,0-10.47-5.16-10.47-11.65
	c0-6.5,3.86-11.65,10.75-11.65C356.06,17.52,360.09,22.28,360.09,29.05z M342.4,29.07c0,4.81,2.4,8.92,7.11,8.92
	c5.09,0,7.08-4.2,7.08-8.89c0-4.77-2.26-8.75-7.09-8.75C344.56,20.35,342.4,24.32,342.4,29.07z M367.36,17.85v19.81h11.72
	l-0.44,2.85H364V17.85H367.36z M383.93,17.85v13.61c0,5.16,2.8,6.58,5.62,6.58c3.28,0,5.56-1.55,5.56-6.58V17.85h3.38v13.44
	c0,7.42-4.15,9.51-9,9.51c-4.8,0-8.95-2.24-8.95-9.32V17.85H383.93z M408.33,20.69h-7.24v-2.85h17.85v2.85h-7.24V40.5h-3.38V20.69z
	 M425.04,17.85V40.5h-3.36V17.85H425.04z M450.09,29.05c0,6.24-3.55,11.77-10.73,11.77c-6.75,0-10.47-5.16-10.47-11.65
	c0-6.5,3.86-11.65,10.75-11.65C446.06,17.52,450.09,22.28,450.09,29.05z M432.39,29.07c0,4.81,2.4,8.92,7.11,8.92
	c5.09,0,7.08-4.2,7.08-8.89c0-4.77-2.26-8.75-7.09-8.75C434.55,20.35,432.39,24.32,432.39,29.07z M454,40.5V17.85h4.37
	c3.17,5.26,9.89,16.13,11.12,18.59h0.05c-0.23-2.81-0.21-6.45-0.21-10.15v-8.44h3.14V40.5h-4.12c-2.89-4.82-9.96-16.65-11.32-19.2
	h-0.05c0.16,2.47,0.17,6.46,0.17,10.54v8.66H454z M479.27,34.13c0.6,2.63,2.41,4.01,5.57,4.01c3.36,0,4.71-1.54,4.71-3.59
	c0-2.19-1.11-3.37-5.53-4.44c-5.49-1.33-7.29-3.23-7.29-6.39c0-3.48,2.57-6.21,7.69-6.21c5.51,0,7.77,3.14,8.07,6.18h-3.41
	c-0.37-1.9-1.54-3.53-4.77-3.53c-2.61,0-4.1,1.16-4.1,3.22c0,2.02,1.22,2.82,5.13,3.76c6.48,1.57,7.68,4.07,7.68,7.03
	c0,3.75-2.79,6.6-8.41,6.6c-5.71,0-8.27-3.06-8.75-6.66H479.27z"/>
</svg>
