<svg width="132" height="51" viewBox="0 0 132 51" fill="none" xmlns="http://www.w3.org/2000/svg">
<path d="M1.12493 0.124878H2.91753C5.08645 0.124878 6.53509 1.07919 7.26346 2.98781C7.5103 3.72504 7.63372 4.29844 7.63372 4.71007V18.8404C7.63372 19.9749 8.04039 20.5442 8.85373 20.5442H23.757C24.8293 20.5442 25.3654 19.977 25.3654 18.8404V3.84996C25.3654 2.24033 26.4924 1.03004 28.7483 0.21908C29.1671 0.157644 29.5799 0.124878 29.9865 0.124878H31.5768C32.465 0.124878 32.9081 0.475064 32.9081 1.17339V22.1702C32.9081 24.4413 31.682 25.9998 29.2278 26.8496C28.7463 26.9131 28.2101 26.9438 27.6193 26.9438H5.28675C3.01869 26.9438 1.5397 26.182 0.849772 24.6604C0.283263 24.0993 8.1147e-06 23.014 8.1147e-06 21.4043V1.54815C-0.00201513 0.599984 0.374309 0.124878 1.12493 0.124878Z" fill="#464646"/>
<path d="M41.2297 0.182251H46.832C47.7445 0.182251 49.2963 1.49903 51.4916 4.13055C55.4612 8.45976 58.7955 11.9903 61.4945 14.7222C61.7171 14.9085 61.9376 15.0027 62.1601 15.0027C62.6032 15.0027 62.8258 14.6546 62.8258 13.9542V4.99066C62.8258 2.98169 63.362 1.66491 64.4343 1.04236C65.5936 0.468953 66.6396 0.182251 67.5784 0.182251H69.1869C69.9517 0.182251 70.3341 0.663501 70.3341 1.62395V25.8769C70.3341 26.5875 70.0508 26.9439 69.4843 26.9439H63.103C62.4495 26.9439 61.4702 26.139 60.1632 24.5294C58.9917 23.4195 56.4526 20.6938 52.5457 16.3523C50.0065 13.7207 48.6449 12.404 48.4587 12.404H48.1633C47.8558 12.5657 47.702 12.8217 47.702 13.1719V21.5559C47.6272 24.4762 47.2367 26.0879 46.5285 26.393C45.8204 26.6981 44.6206 26.8824 42.9332 26.9459H40.8432C40.3374 26.9459 40.0845 26.6899 40.0845 26.178V18.7647C40.0845 16.3809 40.0542 14.5849 39.9914 13.3747C40.0521 12.1521 40.0845 10.3561 40.0845 7.98465V1.04236C40.0825 0.468953 40.4649 0.182251 41.2297 0.182251Z" fill="#464646"/>
<path d="M78.6152 0.124878H84.1063C84.7962 0.124878 85.1422 0.380862 85.1422 0.892831V26.0817C85.1422 26.6551 84.6667 26.9418 83.7178 26.9418H79.0765C78.0649 26.9418 77.5611 26.6244 77.5611 25.9875V0.987033C77.5611 0.413628 77.9111 0.124878 78.6152 0.124878Z" fill="#464646"/>
<path d="M117.405 0.124878H121.215C121.559 0.124878 121.781 0.255942 121.88 0.51807V0.798628C121.88 1.04847 120.326 4.07318 117.221 9.8748C117.097 10.1246 117.037 10.4728 117.037 10.9233C117.037 11.3984 117.862 13.0695 119.515 15.9386C121.611 19.807 123.452 23.3129 125.043 26.4564V26.5506C125.043 26.651 124.913 26.782 124.654 26.9438H120.272C118.115 26.9438 116.715 26.1697 116.076 24.6236C114.928 22.7027 113.66 20.3886 112.266 17.6813C111.736 16.6594 111.034 16.1474 110.158 16.1474H110.065C107.426 16.2109 105.239 16.2416 103.501 16.2416H102.354C101.466 16.2416 101.023 16.6901 101.023 17.5891V25.5984C101.023 26.4974 100.733 26.9459 100.155 26.9459H94.0526C93.5468 26.9459 93.2939 26.6223 93.2939 25.9731V11.9903C93.2939 11.2162 93.6763 10.8291 94.441 10.8291H107.402C108.399 10.8291 109.128 10.1554 109.583 8.80786L113.3 1.95977C114.348 0.737192 115.715 0.124878 117.405 0.124878Z" fill="#464646"/>
<path d="M127.169 0.436197H126.366V0H128.486V0.436197H127.685V2.85064H127.169V0.436197Z" fill="#464646"/>
<path d="M131.187 1.68745C131.169 1.32088 131.149 0.874442 131.153 0.49149H131.141C131.05 0.835532 130.934 1.22258 130.803 1.58096L130.396 2.81378H130.004L129.629 1.59734C129.516 1.23487 129.415 0.845772 129.344 0.49149H129.336C129.32 0.862155 129.304 1.31473 129.285 1.70588L129.221 2.84859H128.741L128.927 0H129.605L129.971 1.14681C130.072 1.48266 130.159 1.81851 130.23 2.13388H130.244C130.317 1.8267 130.416 1.47447 130.524 1.14067L130.908 0H131.578L131.742 2.84859H131.242L131.187 1.68745Z" fill="#515251"/>
<path d="M94.441 0.124878H99.8775C100.642 0.124878 101.025 0.542644 101.025 1.37818V5.04592C101.025 5.94493 100.673 6.39342 99.9706 6.39342H94.1457C93.5791 6.30536 93.2959 6.01866 93.2959 5.53331V1.28602C93.2959 0.511926 93.6763 0.124878 94.441 0.124878Z" fill="url(#paint0_linear_4_268)"/>
<path d="M37.5413 36.6057V47.572H36.4771V36.6057H33.6506V35.5776H40.3678V36.6057H37.5413Z" fill="#515251"/>
<path d="M48.8715 46.2021C48.742 46.5093 48.5639 46.7755 48.3394 47.0028C48.1127 47.2322 47.8497 47.4124 47.5442 47.5434C47.2407 47.6724 46.919 47.74 46.5771 47.74H45.8993C45.5574 47.74 45.2357 47.6724 44.9322 47.5434C44.6287 47.4124 44.3657 47.2322 44.1391 47.0028C43.9125 46.7755 43.7365 46.5072 43.607 46.2021C43.4775 45.8949 43.4128 45.5672 43.4128 45.2232V41.3589C43.4128 41.0128 43.4775 40.6871 43.607 40.38C43.7365 40.0728 43.9145 39.8066 44.1391 39.5752C44.3657 39.3478 44.6287 39.1676 44.9322 39.0366C45.2357 38.9055 45.5574 38.84 45.8993 38.84H46.5771C46.919 38.84 47.2407 38.9055 47.5442 39.0366C47.8477 39.1676 48.1107 39.3478 48.3394 39.5752C48.566 39.8045 48.742 40.0728 48.8715 40.38C49.001 40.6871 49.0657 41.0107 49.0657 41.3589V43.374H44.4304V45.2805C44.4304 45.4853 44.4689 45.6799 44.5458 45.8621C44.6226 46.0444 44.7258 46.2021 44.8594 46.3352C44.9929 46.4683 45.1487 46.5748 45.3267 46.6506C45.5068 46.7304 45.697 46.7673 45.9013 46.7673H46.5791C46.7835 46.7673 46.9757 46.7284 47.1537 46.6506C47.3338 46.5748 47.4896 46.4683 47.6211 46.3352C47.7526 46.2021 47.8578 46.0423 47.9347 45.8621C48.0116 45.6819 48.05 45.4874 48.05 45.2805V44.7133L49.0657 44.8791V45.2232C49.0657 45.5672 49.001 45.8949 48.8715 46.2021ZM48.05 41.2995C48.05 41.0947 48.0116 40.9001 47.9347 40.7179C47.8578 40.5377 47.7526 40.38 47.6211 40.2469C47.4896 40.1137 47.3338 40.0073 47.1537 39.9294C46.9757 39.8496 46.7835 39.8127 46.5791 39.8127H45.9013C45.699 39.8127 45.5068 39.8516 45.3267 39.9294C45.1487 40.0093 44.9929 40.1137 44.8594 40.2469C44.7258 40.38 44.6226 40.5397 44.5458 40.7179C44.4669 40.9001 44.4304 41.0926 44.4304 41.2995V42.5732H48.05V41.2995Z" fill="#515251"/>
<path d="M58.925 46.2021C58.7955 46.5093 58.6174 46.7755 58.3929 47.0028C58.1663 47.2322 57.9032 47.4124 57.5977 47.5434C57.2942 47.6724 56.9726 47.74 56.6306 47.74H55.9528C55.6109 47.74 55.2892 47.6724 54.9857 47.5434C54.6822 47.4124 54.4192 47.2322 54.1926 47.0028C53.966 46.7755 53.79 46.5072 53.6605 46.2021C53.531 45.8949 53.4663 45.5672 53.4663 45.2232V41.3589C53.4663 41.0128 53.531 40.6871 53.6605 40.38C53.79 40.0728 53.968 39.8066 54.1926 39.5752C54.4192 39.3478 54.6822 39.1676 54.9857 39.0366C55.2892 38.9055 55.6109 38.84 55.9528 38.84H56.6306C56.9726 38.84 57.2942 38.9055 57.5977 39.0366C57.9012 39.1676 58.1642 39.3478 58.3929 39.5752C58.6195 39.8045 58.7955 40.0728 58.925 40.38C59.0545 40.6871 59.1192 41.0107 59.1192 41.3589V41.7008L58.1035 41.8688V41.2995C58.1035 41.0947 58.0651 40.9001 57.9882 40.7179C57.9113 40.5377 57.8061 40.38 57.6746 40.2469C57.5431 40.1137 57.3873 40.0073 57.2072 39.9294C57.0292 39.8496 56.837 39.8127 56.6326 39.8127H55.9549C55.7525 39.8127 55.5603 39.8516 55.3803 39.9294C55.2022 40.0093 55.0464 40.1137 54.9129 40.2469C54.7814 40.38 54.6762 40.5397 54.5993 40.7179C54.5204 40.9001 54.484 41.0926 54.484 41.2995V45.2805C54.484 45.4853 54.5224 45.6799 54.5993 45.8621C54.6762 46.0444 54.7794 46.2021 54.9129 46.3352C55.0444 46.4683 55.2022 46.5748 55.3803 46.6506C55.5603 46.7304 55.7505 46.7673 55.9549 46.7673H56.6326C56.837 46.7673 57.0292 46.7284 57.2072 46.6506C57.3873 46.5748 57.5431 46.4683 57.6746 46.3352C57.8061 46.2021 57.9113 46.0423 57.9882 45.8621C58.0651 45.6799 58.1035 45.4874 58.1035 45.2805V44.7133L59.1192 44.8791V45.2232C59.1192 45.5672 59.0545 45.8949 58.925 46.2021Z" fill="#515251"/>
<path d="M68.1571 47.572V41.2994C68.1571 41.0946 68.1186 40.9001 68.0417 40.7178C67.9649 40.5376 67.8596 40.3799 67.7281 40.2468C67.5966 40.1137 67.4408 40.0072 67.2608 39.9294C67.0827 39.8495 66.8905 39.8126 66.6862 39.8126H66.0084C65.8061 39.8126 65.6138 39.8515 65.4338 39.9294C65.2557 40.0092 65.0999 40.1137 64.9664 40.2468C64.8349 40.3799 64.7297 40.5396 64.6528 40.7178C64.5739 40.9001 64.5375 41.0926 64.5375 41.2994V47.572H63.5218V35.5776H64.5395V39.7266C64.7701 39.4481 65.0494 39.231 65.3731 39.0754C65.6988 38.9177 66.0509 38.8419 66.4312 38.8419H66.6862C67.0281 38.8419 67.3498 38.9075 67.6533 39.0385C67.9568 39.1696 68.2198 39.3498 68.4484 39.5771C68.675 39.8065 68.851 40.0748 68.9805 40.3819C69.11 40.6891 69.1748 41.0127 69.1748 41.3608V47.5741H68.1571V47.572Z" fill="#515251"/>
<path d="M78.2106 47.5721V41.2995C78.2106 41.0947 78.1721 40.9001 78.0952 40.7179C78.0184 40.5377 77.9131 40.38 77.7816 40.2469C77.6501 40.1137 77.4943 40.0073 77.3143 39.9294C77.1362 39.8496 76.944 39.8127 76.7397 39.8127H76.0619C75.8595 39.8127 75.6673 39.8516 75.4873 39.9294C75.3092 40.0093 75.1534 40.1137 75.0199 40.2469C74.8884 40.38 74.7832 40.5397 74.7063 40.7179C74.6274 40.9001 74.591 41.0926 74.591 41.2995V47.5721H73.5753V39.0079H73.9152L74.4676 39.8762C74.7002 39.5588 74.9896 39.3069 75.3396 39.1205C75.6896 38.9342 76.072 38.84 76.4847 38.84H76.7397C77.0816 38.84 77.4033 38.9055 77.7068 39.0366C78.0103 39.1676 78.2733 39.3478 78.5019 39.5752C78.7285 39.8045 78.9045 40.0728 79.034 40.38C79.1635 40.6871 79.2283 41.0107 79.2283 41.3589V47.5721H78.2106Z" fill="#515251"/>
<path d="M89.0875 46.2021C88.958 46.5093 88.78 46.7755 88.5554 47.0028C88.3288 47.2322 88.0658 47.4124 87.7603 47.5434C87.4568 47.6724 87.1351 47.74 86.7932 47.74H86.1154C85.7735 47.74 85.4518 47.6724 85.1483 47.5434C84.8448 47.4124 84.5818 47.2322 84.3552 47.0028C84.1286 46.7755 83.9525 46.5072 83.8231 46.2021C83.6936 45.8949 83.6288 45.5672 83.6288 45.2232V41.3589C83.6288 41.0128 83.6936 40.6871 83.8231 40.38C83.9525 40.0728 84.1306 39.8066 84.3552 39.5752C84.5818 39.3478 84.8448 39.1676 85.1483 39.0366C85.4518 38.9055 85.7735 38.84 86.1154 38.84H86.7932C87.1351 38.84 87.4568 38.9055 87.7603 39.0366C88.0638 39.1676 88.3268 39.3478 88.5554 39.5752C88.782 39.8045 88.958 40.0728 89.0875 40.38C89.217 40.6871 89.2818 41.0107 89.2818 41.3589V45.2232C89.2818 45.5672 89.217 45.8949 89.0875 46.2021ZM88.2641 41.2995C88.2641 41.0947 88.2256 40.9001 88.1488 40.7179C88.0719 40.5377 87.9667 40.38 87.8352 40.2469C87.7036 40.1137 87.5478 40.0073 87.3678 39.9294C87.1897 39.8496 86.9975 39.8127 86.7932 39.8127H86.1154C85.9131 39.8127 85.7209 39.8516 85.5408 39.9294C85.3627 40.0093 85.207 40.1137 85.0734 40.2469C84.9419 40.38 84.8367 40.5397 84.7598 40.7179C84.6809 40.9001 84.6445 41.0926 84.6445 41.2995V45.2805C84.6445 45.4853 84.6829 45.6799 84.7598 45.8621C84.8367 46.0444 84.9399 46.2021 85.0734 46.3352C85.2049 46.4683 85.3627 46.5748 85.5408 46.6506C85.7209 46.7304 85.911 46.7673 86.1154 46.7673H86.7932C86.9975 46.7673 87.1897 46.7284 87.3678 46.6506C87.5478 46.5748 87.7036 46.4683 87.8352 46.3352C87.9667 46.2021 88.0719 46.0423 88.1488 45.8621C88.2256 45.6799 88.2641 45.4874 88.2641 45.2805V41.2995Z" fill="#515251"/>
<path d="M94.0222 47.572V35.5776H95.0379V47.572H94.0222Z" fill="#515251"/>
<path d="M105.073 46.2021C104.944 46.5093 104.766 46.7755 104.541 47.0028C104.314 47.2322 104.051 47.4124 103.746 47.5434C103.442 47.6724 103.121 47.74 102.779 47.74H102.101C101.759 47.74 101.437 47.6724 101.134 47.5434C100.83 47.4124 100.567 47.2322 100.341 47.0028C100.114 46.7755 99.9382 46.5072 99.8087 46.2021C99.6792 45.8949 99.6145 45.5672 99.6145 45.2232V41.3589C99.6145 41.0128 99.6792 40.6871 99.8087 40.38C99.9382 40.0728 100.116 39.8066 100.341 39.5752C100.567 39.3478 100.83 39.1676 101.134 39.0366C101.437 38.9055 101.759 38.84 102.101 38.84H102.779C103.121 38.84 103.442 38.9055 103.746 39.0366C104.049 39.1676 104.312 39.3478 104.541 39.5752C104.768 39.8045 104.944 40.0728 105.073 40.38C105.203 40.6871 105.267 41.0107 105.267 41.3589V45.2232C105.265 45.5672 105.201 45.8949 105.073 46.2021ZM104.25 41.2995C104.25 41.0947 104.211 40.9001 104.134 40.7179C104.058 40.5377 103.952 40.38 103.821 40.2469C103.689 40.1137 103.534 40.0073 103.353 39.9294C103.175 39.8496 102.983 39.8127 102.779 39.8127H102.101C101.899 39.8127 101.707 39.8516 101.526 39.9294C101.348 40.0093 101.193 40.1137 101.059 40.2469C100.928 40.38 100.822 40.5397 100.745 40.7179C100.667 40.9001 100.63 41.0926 100.63 41.2995V45.2805C100.63 45.4853 100.669 45.6799 100.745 45.8621C100.822 46.0444 100.926 46.2021 101.059 46.3352C101.191 46.4683 101.348 46.5748 101.526 46.6506C101.707 46.7304 101.897 46.7673 102.101 46.7673H102.779C102.983 46.7673 103.175 46.7284 103.353 46.6506C103.534 46.5748 103.689 46.4683 103.821 46.3352C103.952 46.2021 104.058 46.0423 104.134 45.8621C104.211 45.6819 104.25 45.4874 104.25 45.2805V41.2995Z" fill="#515251"/>
<path d="M115.208 49.6035C115.078 49.8964 114.902 50.1421 114.676 50.351C114.449 50.5558 114.186 50.7176 113.882 50.8322C113.579 50.9449 113.257 51.0022 112.915 51.0022H112.494C112.153 51.0022 111.831 50.9449 111.527 50.8322C111.224 50.7176 110.961 50.5578 110.734 50.351C110.508 50.1421 110.33 49.8964 110.202 49.6035C110.073 49.3148 110.008 48.9953 110.008 48.6513V48.6185C110.008 48.2826 110.069 47.9775 110.188 47.697C110.309 47.4184 110.475 47.1768 110.684 46.97C110.419 46.8102 110.208 46.5891 110.05 46.3146C109.893 46.0402 109.816 45.733 109.816 45.3992C109.816 45.0982 109.878 44.8176 110.006 44.5596C110.133 44.2995 110.305 44.0906 110.526 43.9289C110.261 43.6954 110.052 43.4128 109.899 43.0851C109.743 42.7554 109.668 42.3971 109.668 42.0059V41.3629C109.668 41.0168 109.733 40.6912 109.862 40.384C109.992 40.0768 110.17 39.8106 110.394 39.5792C110.621 39.3519 110.884 39.1717 111.187 39.0406C111.491 38.9095 111.813 38.844 112.155 38.844H112.577C112.99 38.844 113.373 38.9382 113.721 39.1246C114.071 39.3109 114.362 39.5628 114.593 39.8802L115.145 39.0119H115.485V42.0059C115.485 42.35 115.42 42.6776 115.291 42.9848C115.161 43.292 114.983 43.5582 114.758 43.7896C114.532 44.0169 114.269 44.1971 113.965 44.3282C113.662 44.4593 113.34 44.5248 112.998 44.5248H111.527C111.412 44.5248 111.301 44.5494 111.196 44.5965C111.092 44.6436 110.999 44.7071 110.918 44.7828C110.837 44.8627 110.777 44.9548 110.732 45.0654C110.688 45.174 110.665 45.2846 110.665 45.4033C110.665 45.5221 110.688 45.6327 110.732 45.7392C110.777 45.8436 110.837 45.9378 110.918 46.0197C110.999 46.1017 111.09 46.1631 111.196 46.2081C111.301 46.2512 111.41 46.2757 111.527 46.2757H112.915C113.257 46.2757 113.579 46.3331 113.882 46.4457C114.186 46.5604 114.449 46.7201 114.676 46.927C114.902 47.1358 115.08 47.3816 115.208 47.6703C115.337 47.9632 115.402 48.2786 115.402 48.6246V48.6574C115.402 48.9953 115.337 49.3148 115.208 49.6035ZM114.477 41.2994C114.477 41.0946 114.439 40.9001 114.362 40.7178C114.285 40.5376 114.178 40.3799 114.044 40.2468C113.909 40.1137 113.753 40.0072 113.573 39.9294C113.395 39.8495 113.203 39.8126 112.998 39.8126H112.155C111.952 39.8126 111.76 39.8515 111.58 39.9294C111.402 40.0092 111.246 40.1137 111.113 40.2468C110.981 40.3799 110.876 40.5396 110.799 40.7178C110.72 40.9001 110.684 41.0926 110.684 41.2994V42.0612C110.684 42.2701 110.722 42.4626 110.799 42.6428C110.876 42.8251 110.979 42.9827 111.113 43.1159C111.244 43.249 111.402 43.3555 111.58 43.4333C111.76 43.5091 111.95 43.55 112.155 43.55H112.998C113.203 43.55 113.395 43.5091 113.573 43.4333C113.753 43.3534 113.909 43.249 114.044 43.1159C114.18 42.9827 114.285 42.823 114.362 42.6428C114.439 42.4626 114.477 42.2701 114.477 42.0612V41.2994ZM114.435 48.5673C114.435 48.3625 114.396 48.1741 114.319 48.0123C114.243 47.8464 114.137 47.7092 114.006 47.5966C113.874 47.486 113.719 47.4 113.538 47.3386C113.36 47.2792 113.168 47.2485 112.964 47.2485H112.444C112.24 47.2485 112.047 47.2792 111.869 47.3386C111.691 47.4 111.535 47.486 111.402 47.5966C111.27 47.7092 111.165 47.8485 111.088 48.0123C111.011 48.1741 110.973 48.3625 110.973 48.5673V48.7004C110.973 48.9052 111.011 49.0895 111.088 49.2533C111.167 49.4131 111.27 49.5523 111.402 49.667C111.533 49.7796 111.691 49.8677 111.869 49.9312C112.047 49.9906 112.24 50.0213 112.444 50.0213H112.964C113.168 50.0213 113.36 49.9906 113.538 49.9312C113.719 49.8697 113.872 49.7796 114.006 49.667C114.137 49.5523 114.243 49.4131 114.319 49.2533C114.396 49.0916 114.435 48.9072 114.435 48.7004V48.5673Z" fill="#515251"/>
<path d="M121.091 51.0002H120.108L121.613 46.8348L118.87 39.0078H119.885L122.091 45.4975L122.123 45.9399L122.155 45.4975L124.355 39.0078H125.37L121.091 51.0002Z" fill="#515251"/>
<defs>
<linearGradient id="paint0_linear_4_268" x1="97.1592" y1="6.39493" x2="97.1592" y2="0.125677" gradientUnits="userSpaceOnUse">
<stop stop-color="#051C39"/>
<stop offset="1" stop-color="#0A90CF"/>
</linearGradient>
</defs>
</svg>
