<svg id="Layer_1" data-name="Layer 1" xmlns="http://www.w3.org/2000/svg" viewBox="0 0 213.58 191.99"><defs><style>.cls-1{fill:#fcce0d;}.cls-1,.cls-2{stroke:#444;stroke-miterlimit:10;}.cls-2{fill:none;}.cls-3,.cls-6{fill:#15b4a2;}.cls-6{font-size:37.21px;font-weight:600;font-family:Roboto, sans-serif;}</style></defs><polygon class="cls-1" points="168.4 36.34 185.33 178.57 183.56 178.57 143.39 36.34 168.4 36.34"/><polygon class="cls-2" points="44.1 38.36 27.43 178.57 183.56 178.57 143.39 36.34 44.45 36.34 44.1 38.36"/><path class="cls-2" d="M67.35,36.34c0-45.65,77.56-45.65,77.56,0"/><path class="cls-2" d="M79,36.34c1.64-30.57,52.67-29.94,54.19,0"/><circle class="cls-2" cx="24.78" cy="94.28" r="6.19"/><circle class="cls-2" cx="190.36" cy="133.32" r="4.63"/><line class="cls-2" x1="192.72" y1="56.77" x2="185.33" y2="64.44"/><line class="cls-2" x1="192.86" y1="64.3" x2="185.18" y2="56.91"/><polygon class="cls-1" points="33.68 174.01 41.55 177 34.79 182.01 31.81 189.88 26.79 183.12 18.93 180.14 25.68 175.12 28.67 167.25 33.68 174.01"/><path class="cls-3" d="M105.5,57.92A26.39,26.39,0,1,0,131.89,84.3,26.39,26.39,0,0,0,105.5,57.92Zm14,42.27-14-13.48-13.49,14-2.44-2.35,13.49-14-14-13.49,2.35-2.45,14,13.49,13.48-14,2.45,2.36-13.49,14,14,13.49Z"/><text class="cls-6" transform="translate(76.86 147.69)">500</text><text style="font-size:10px;font-family:Roboto, sans-serif;" transform="translate(68.86 163.69)">Refresh the page!</text></svg>