<svg id="Layer_1" data-name="Layer 1" xmlns="http://www.w3.org/2000/svg" viewBox="0 0 213.58 249.59"><defs><style>.cls-1,.cls-4{fill:#fcce0d;}.cls-1,.cls-2{stroke:#444;stroke-miterlimit:10;}.cls-2{fill:none;}.cls-3{fill:#444;}.cls-4{font-size:37.21px;font-family:MyriadPro-Regular, Myriad Pro;}.cls-5{letter-spacing:-0.02em;}</style></defs><polygon class="cls-1" points="163.7 36.78 180.63 179.01 178.86 179.01 138.69 36.78 163.7 36.78"/><polygon class="cls-2" points="39.41 38.8 22.73 179.01 178.86 179.01 138.69 36.78 39.75 36.78 39.41 38.8"/><path class="cls-2" d="M62.65,36.78c0-45.64,77.56-45.64,77.56,0"/><path class="cls-2" d="M74.27,36.78c1.64-30.57,52.67-29.94,54.19,0"/><circle class="cls-3" cx="76.04" cy="85.92" r="8.34"/><circle class="cls-3" cx="126.94" cy="85.92" r="8.34"/><path class="cls-3" d="M64.48,141.43c13.26-37.13,59.87-33.53,74.21,0,.82,1.88-1,2.34-2.21,0-15.22-27.91-57.54-28-69.85,0C65.9,143.23,63.94,143.21,64.48,141.43Z"/><circle class="cls-2" cx="20.08" cy="94.72" r="6.19"/><circle class="cls-2" cx="185.66" cy="133.77" r="4.63"/><line class="cls-2" x1="188.02" y1="57.21" x2="180.63" y2="64.89"/><line class="cls-2" x1="188.16" y1="64.74" x2="180.49" y2="57.35"/><polygon class="cls-1" points="28.99 174.46 36.85 177.44 30.09 182.46 27.11 190.33 22.1 183.57 14.23 180.58 20.99 175.57 23.97 167.7 28.99 174.46"/><text class="cls-4" transform="translate(10.46 237.73)">N<tspan class="cls-5" x="24.48" y="0">O</tspan><tspan x="49.19" y="0">T FOUND</tspan></text></svg>