<svg id="Layer_1" data-name="Layer 1" xmlns="http://www.w3.org/2000/svg" viewBox="0 0 95 95"><defs><style>.cls-1{fill:#21609b;fill-rule:evenodd;}.cls-2{fill:#f4eded;}</style></defs><path class="cls-1" d="M81.455,51.308l-.313.819C75.8,62.621,66.342,69.06,52.847,69.344A39.246,39.246,0,0,1,36.6,66.065,42.136,42.136,0,0,1,17.107,47.482c-5.584-10.915-6.59-26.1,5.02-37.439.179,0-1.408,2.458-1.229,2.458l-.32,1.05c-8.366,26.437,17.409,49.093,42.466,46.5a32.776,32.776,0,0,0,18.411-8.744Z"/><path class="cls-1" d="M66.293,40.376a23.855,23.855,0,0,0,16.787-7.1c-3.411,8.74-13.288,14.358-26.534,12.571C45.455,44.344,34.89,33.08,33.8,21.793c-.8-8.214,2.041-13.117,6.715-19.064a20.068,20.068,0,0,0-2.383,7.04C36.358,27.538,52.2,40.284,66.293,40.376Z"/><path class="cls-1" d="M82.447,18.306c-.98,2.269-6.623,6.553-9.114,7.089-9.866,2.121-16.186-2.6-19.495-7.975a24.746,24.746,0,0,1-1.565-3.552C50.99,9.463,51.58,2.8,55.409-.648a18.3,18.3,0,0,0-.715,9.564,21.34,21.34,0,0,0,2.61,5.755c2.041,3,3.335,3.723,5.957,5.313a15.779,15.779,0,0,0,2.994,1.449c2.486.737,7.733,2.683,16.192-3.127Z"/><path class="cls-2" d="M9.046,91.979l1.033-2.6a1.908,1.908,0,0,0,1.062.328c.825,0,1.183-.631,1.49-2.054l2.529-13.4,3.377.006L15.976,87.809c-.531,2.67-1.78,4.778-4.563,4.773A4.684,4.684,0,0,1,9.046,91.979Zm6.62-21.438A2.14,2.14,0,0,1,17.779,68.4a1.742,1.742,0,0,1,1.827,1.757,2.084,2.084,0,0,1-2.112,2.138A1.716,1.716,0,0,1,15.666,70.541Z"/><path class="cls-2" d="M20.305,80.419c.01-6.1,3.84-10.594,8.2-10.586,3.678.006,6.044,2.725,6.036,7.312-.01,6.1-3.84,10.592-8.2,10.584C22.663,87.724,20.3,85.006,20.305,80.419Zm10.768-3.043c0-2.742-.96-4.406-2.745-4.409-2.288,0-4.55,3.22-4.557,7.221,0,2.742.96,4.407,2.746,4.41C28.805,84.6,31.067,81.377,31.073,77.376Zm-7.189,9.306,3.426.034c.383,1.692,2.02,2.448,3.7,2.451a5.429,5.429,0,0,0,1.625-.243l.135,2.75a5.866,5.866,0,0,1-1.977.418C27.279,92.086,24.924,90.33,23.884,86.682Z"/><path class="cls-2" d="M45.828,87.445l-2.748,0,.054-1.769h-.1a6.1,6.1,0,0,1-4.006,2.08c-2.025,0-2.894-1.189-2.89-3.383a9.864,9.864,0,0,1,.2-1.87l1.545-8.208,3.376.006L39.8,82.049a6.807,6.807,0,0,0-.2,1.259c0,.9.437,1.356,1.243,1.357.721,0,1.471-.539,2.454-1.713l1.589-8.65,3.376.006Z"/><path class="cls-2" d="M56.185,74c2.924.005,3.989,2.21,3.984,4.937a8.514,8.514,0,0,1-.626,2.992l-6.98-.012c-.088,2.186,1.14,3.116,2.754,3.119a4.06,4.06,0,0,0,2.249-.918l1.2,2.287a7.3,7.3,0,0,1-4.395,1.369c-2.96,0-5.01-2.114-5-5.635C49.372,77.276,52.928,74,56.185,74ZM57.3,79.71a4.782,4.782,0,0,0,.109-.979c0-1.058-.412-1.943-1.64-1.946-1.164,0-2.363.989-2.926,2.917Z"/><path class="cls-2" d="M63.668,74.333l2.749,0L66.262,76.9h.1c.95-1.657,2.341-2.873,3.749-2.871a2.507,2.507,0,0,1,1.281.258l-1.115,3.141a2.511,2.511,0,0,0-1.214-.214c-1.081,0-2.092.807-3.059,2.655l-1.39,7.612-3.377-.006Z"/><path class="cls-2" d="M69.551,92.1l1.032-2.6a1.774,1.774,0,0,0,.921.257,2.888,2.888,0,0,0,2.32-1.9l.3-.641L72.008,74.347l3.356.006.574,5.929c.114,1.154.186,2.7.21,3.958h.1c.514-1.218,1.117-2.75,1.64-3.955l2.579-5.924,3.263,0L77.094,87.783c-1.7,3.157-3.277,4.847-5.807,4.843A4.021,4.021,0,0,1,69.551,92.1Z"/></svg>